{"accessors":[{"bufferView":0,"byteOffset":0,"componentType":5126,"count":10,"max":[1.1730127895688465,0.4293755695192782,0.31487616796202946],"min":[0.8274127895688467,0.12856564606082797,0.2976268017327817],"type":"VEC3"},{"bufferView":0,"byteOffset":120,"componentType":5126,"count":42,"max":[1.1730127895688465,0.3468645955751987,0.6884349187401193],"min":[0.8274127895688467,0.1304736956837691,0.29794672919741185],"type":"VEC3"},{"bufferView":0,"byteOffset":624,"componentType":5126,"count":642,"max":[0.5115632981040518,0.1746876014401865,0.37199090755585975],"min":[0.419341701384928,0.08281693573904052,0.279944776345725],"type":"VEC3"},{"bufferView":0,"byteOffset":8328,"componentType":5126,"count":7,"max":[0.9470048361269327,0.3679610024579216,0.7168465685206402],"min":[0.9467669259274479,0.13342937535216926,0.3162645238461974],"type":"VEC3"},{"bufferView":0,"byteOffset":8412,"componentType":5126,"count":12,"max":[1.2912030862203748,0.2552110038510478,0.9969280152265687],"min":[0.9912030862203638,0.2548413485514765,-0.4950166412241969],"type":"VEC3"},{"bufferView":0,"byteOffset":8556,"componentType":5126,"count":12,"max":[1.614045032304752,0.24417070193232535,0.9670891220975532],"min":[1.3260450323047413,0.24381583284473735,-0.4651777480951817],"type":"VEC3"},{"bufferView":0,"byteOffset":8700,"componentType":5126,"count":7,"max":[1.1707622740768627,0.3679610024579216,0.7168465685206402],"min":[1.1705243638773777,0.13342937535216926,0.3162645238461974],"type":"VEC3"},{"bufferView":1,"byteOffset":0,"componentType":5126,"count":10,"type":"VEC3"},{"bufferView":1,"byteOffset":120,"componentType":5126,"count":42,"type":"VEC3"},{"bufferView":1,"byteOffset":624,"componentType":5126,"count":642,"type":"VEC3"},{"bufferView":1,"byteOffset":8328,"componentType":5126,"count":7,"type":"VEC3"},{"bufferView":1,"byteOffset":8412,"componentType":5126,"count":12,"type":"VEC3"},{"bufferView":1,"byteOffset":8556,"componentType":5126,"count":12,"type":"VEC3"},{"bufferView":1,"byteOffset":8700,"componentType":5126,"count":7,"type":"VEC3"},{"bufferView":2,"byteOffset":0,"componentType":5123,"count":24,"type":"SCALAR"},{"bufferView":2,"byteOffset":48,"componentType":5123,"count":120,"type":"SCALAR"},{"bufferView":2,"byteOffset":288,"componentType":5123,"count":3732,"type":"SCALAR"},{"bufferView":2,"byteOffset":7752,"componentType":5123,"count":15,"type":"SCALAR"},{"bufferView":2,"byteOffset":7784,"componentType":5123,"count":30,"type":"SCALAR"},{"bufferView":2,"byteOffset":7844,"componentType":5123,"count":30,"type":"SCALAR"},{"bufferView":2,"byteOffset":7904,"componentType":5123,"count":15,"type":"SCALAR"}],"asset":{"generator":"Open CASCADE Technology [www.opencascade.com]","version":"2.0","extras":{"author":"Mozongsoft Co. Ltd.","comment":"Wuweido"}},"bufferViews":[{"buffer":0,"byteLength":8784,"byteOffset":0,"byteStride":12,"target":34962},{"buffer":0,"byteLength":8784,"byteOffset":8784,"byteStride":12,"target":34962},{"buffer":0,"byteLength":7936,"byteOffset":17568,"target":34963}],"buffers":[{"byteLength":25504,"uri":"Bbox.bin"}],"materials":[{"name":"mat_0","pbrMetallicRoughness":{"baseColorFactor":[0.8549919724464417,0.8148459792137146,0.8148459792137146,1.0]},"doubleSided":true},{"name":"mat_1","pbrMetallicRoughness":{"baseColorFactor":[1.0,0.6795420050621033,0.0,1.0]},"doubleSided":true},{"name":"mat_2","pbrMetallicRoughness":{"baseColorFactor":[0.06124600023031235,0.22322799265384675,0.4564110040664673,1.0]},"doubleSided":true}],"meshes":[{"name":"COMPOUND","primitives":[{"attributes":{"NORMAL":7,"POSITION":0},"indices":14,"material":0,"mode":4}]},{"name":"COMPOUND","primitives":[{"attributes":{"NORMAL":8,"POSITION":1},"indices":15,"material":0,"mode":4}]},{"name":"SOLID","primitives":[{"attributes":{"NORMAL":9,"POSITION":2},"indices":16,"material":1,"mode":4}]},{"name":"COMPOUND","primitives":[{"attributes":{"NORMAL":10,"POSITION":3},"indices":17,"material":2,"mode":4}]},{"name":"COMPOUND","primitives":[{"attributes":{"NORMAL":11,"POSITION":4},"indices":18,"material":2,"mode":4}]},{"name":"COMPOUND","primitives":[{"attributes":{"NORMAL":12,"POSITION":5},"indices":19,"material":2,"mode":4}]},{"name":"COMPOUND","primitives":[{"attributes":{"NORMAL":13,"POSITION":6},"indices":20,"material":2,"mode":4}]}],"nodes":[{"translation":[-1.000540584935914,0.0,0.0],"mesh":0,"name":"Object27"},{"translation":[-1.000540584935914,0.0,0.0],"mesh":1,"name":"Object28"},{"rotation":[-0.5,0.5,0.5,0.5000000000000001],"translation":[0.12592960958936245,0.042406831789294687,1.1141769290298922],"mesh":2,"name":"Object29"},{"translation":[-1.1195604987390684,0.0,0.0],"mesh":3,"name":"Object30"},{"rotation":[0.0,0.7071067811865475,0.0,0.7071067811865475],"translation":[-0.2516026667215231,0.01617232194522967,1.6051115903140854],"mesh":4,"name":"Object32"},{"rotation":[-0.7071067811865475,0.7071067811865475,3.925231146709437e-17,1.1775693440128313e-16],"translation":[0.24335905504232753,1.6940060347626629,0.2516688204254588],"mesh":5,"name":"Object47"},{"translation":[-1.000540584935914,0.0,0.0],"mesh":6,"name":"Object48"},{"translation":[-0.17095199712117518,0.0,0.32822783447265638],"name":"Object49"},{"translation":[-0.17095199712117518,0.0,0.32822783447265638],"name":"Object50"},{"name":"Object51"}],"scene":0,"scenes":[{"nodes":[0,1,2,3,4,5,6,7,8,9]}]}