{"accessors":[{"bufferView":0,"byteOffset":0,"componentType":5126,"count":10,"max":[0.17247220463293265,0.37296529990583057,0.31487616796203257],"min":[-0.1731277953670673,0.12856564606082797,0.29762681000985666],"type":"VEC3"},{"bufferView":0,"byteOffset":120,"componentType":5126,"count":42,"max":[1.1730127895688465,0.3468645955751987,0.6884349187401193],"min":[0.8274127895688467,0.1304736956837691,0.29794672919741185],"type":"VEC3"},{"bufferView":0,"byteOffset":624,"componentType":5126,"count":642,"max":[0.48387040743045897,0.1471000905763191,0.34435070678712967],"min":[0.44703459205852089,0.11040444660290805,0.3075849771144551],"type":"VEC3"},{"bufferView":0,"byteOffset":8328,"componentType":5126,"count":7,"max":[0.9470048361269327,0.3679610024579216,0.7168465685206402],"min":[0.9467669259274479,0.13342937535216926,0.3162645238461974],"type":"VEC3"},{"bufferView":0,"byteOffset":8412,"componentType":5126,"count":7,"max":[1.1707622740768627,0.3679610024579216,0.7168465685206402],"min":[1.1705243638773777,0.13342937535216926,0.3162645238461974],"type":"VEC3"},{"bufferView":1,"byteOffset":0,"componentType":5126,"count":10,"type":"VEC3"},{"bufferView":1,"byteOffset":120,"componentType":5126,"count":42,"type":"VEC3"},{"bufferView":1,"byteOffset":624,"componentType":5126,"count":642,"type":"VEC3"},{"bufferView":1,"byteOffset":8328,"componentType":5126,"count":7,"type":"VEC3"},{"bufferView":1,"byteOffset":8412,"componentType":5126,"count":7,"type":"VEC3"},{"bufferView":2,"byteOffset":0,"componentType":5123,"count":24,"type":"SCALAR"},{"bufferView":2,"byteOffset":48,"componentType":5123,"count":120,"type":"SCALAR"},{"bufferView":2,"byteOffset":288,"componentType":5123,"count":3732,"type":"SCALAR"},{"bufferView":2,"byteOffset":7752,"componentType":5123,"count":15,"type":"SCALAR"},{"bufferView":2,"byteOffset":7784,"componentType":5123,"count":15,"type":"SCALAR"}],"asset":{"generator":"Open CASCADE Technology [www.opencascade.com]","version":"2.0","extras":{"author":"Mozongsoft Co. Ltd.","comment":"Wuweido"}},"bufferViews":[{"buffer":0,"byteLength":8496,"byteOffset":0,"byteStride":12,"target":34962},{"buffer":0,"byteLength":8496,"byteOffset":8496,"byteStride":12,"target":34962},{"buffer":0,"byteLength":7816,"byteOffset":16992,"target":34963}],"buffers":[{"byteLength":24808,"uri":"Fbox.bin"}],"materials":[{"name":"mat_0","pbrMetallicRoughness":{"baseColorFactor":[0.8549919724464417,0.8148459792137146,0.8148459792137146,1.0]},"doubleSided":true},{"name":"mat_1","pbrMetallicRoughness":{"baseColorFactor":[1.0,0.6795420050621033,0.0,1.0]},"doubleSided":true},{"name":"mat_2","pbrMetallicRoughness":{"baseColorFactor":[0.871366024017334,0.9386860132217407,1.0,1.0]},"doubleSided":true}],"meshes":[{"name":"COMPOUND","primitives":[{"attributes":{"NORMAL":5,"POSITION":0},"indices":10,"material":0,"mode":4}]},{"name":"COMPOUND","primitives":[{"attributes":{"NORMAL":6,"POSITION":1},"indices":11,"material":0,"mode":4}]},{"name":"SOLID","primitives":[{"attributes":{"NORMAL":7,"POSITION":2},"indices":12,"material":1,"mode":4}]},{"name":"COMPOUND","primitives":[{"attributes":{"NORMAL":8,"POSITION":3},"indices":13,"material":2,"mode":4}]},{"name":"COMPOUND","primitives":[{"attributes":{"NORMAL":9,"POSITION":4},"indices":14,"material":2,"mode":4}]}],"nodes":[{"mesh":0,"name":"Object27"},{"translation":[-1.000540584935914,0.0,0.0],"mesh":1,"name":"Object28"},{"rotation":[-0.5,0.5,0.5,0.5000000000000001],"translation":[0.12830385529820408,0.042406831789294687,1.0785632433972679],"mesh":2,"name":"Object29"},{"translation":[-1.1195604987390684,0.0,0.0],"mesh":3,"name":"Object30"},{"translation":[-1.000540584935914,0.0,0.0],"mesh":4,"name":"Object48"}],"scene":0,"scenes":[{"nodes":[0,1,2,3,4]}]}