{"accessors":[{"bufferView":0,"byteOffset":0,"componentType":5126,"count":10,"max":[0.17247220463293265,0.37296529990583057,0.31487616796203257],"min":[-0.1731277953670673,0.12856564606082797,0.29762681000985666],"type":"VEC3"},{"bufferView":0,"byteOffset":120,"componentType":5126,"count":42,"max":[1.1730127895688465,0.3468645955751987,0.6884349187401193],"min":[0.8274127895688467,0.1304736956837691,0.29794672919741185],"type":"VEC3"},{"bufferView":0,"byteOffset":624,"componentType":5126,"count":642,"max":[0.48387040743045897,0.1471000905763191,0.34435070678712967],"min":[0.44703459205852089,0.11040444660290805,0.3075849771144551],"type":"VEC3"},{"bufferView":0,"byteOffset":8328,"componentType":5126,"count":7,"max":[0.9470048361269327,0.3679610024579216,0.7168465685206402],"min":[0.9467669259274479,0.13342937535216926,0.3162645238461974],"type":"VEC3"},{"bufferView":0,"byteOffset":8412,"componentType":5126,"count":7,"max":[1.1707622740768627,0.3679610024579216,0.7168465685206402],"min":[1.1705243638773777,0.13342937535216926,0.3162645238461974],"type":"VEC3"},{"bufferView":0,"byteOffset":8496,"componentType":5126,"count":94,"max":[-0.27695868520499597,0.13107602480227255,0.7230315853855095],"min":[-0.28302306690896869,0.06892397519772738,0.7169695479558916],"type":"VEC3"},{"bufferView":0,"byteOffset":9624,"componentType":5126,"count":46,"max":[-0.27695868520499597,0.13107602480227255,0.7230315853855095],"min":[-0.28302306690896869,0.1310760248022724,0.7169695479558916],"type":"VEC3"},{"bufferView":0,"byteOffset":10176,"componentType":5126,"count":46,"max":[-0.27695868520499597,0.06892397519772749,0.7230315853855095],"min":[-0.28302306690896869,0.06892397519772738,0.7169695479558919],"type":"VEC3"},{"bufferView":0,"byteOffset":10728,"componentType":5126,"count":86,"max":[-0.01129968851767498,0.060973905223825088,0.7883049761238977],"min":[-0.08857812279035299,0.03902609477617491,0.7116840503507355],"type":"VEC3"},{"bufferView":0,"byteOffset":11760,"componentType":5126,"count":42,"max":[-0.01129968851767498,0.060973905223825088,0.7883049761238977],"min":[-0.08857812279035299,0.06097390522382506,0.7116840503507355],"type":"VEC3"},{"bufferView":0,"byteOffset":12264,"componentType":5126,"count":42,"max":[-0.01129968851767498,0.03902609477617494,0.7883049761238977],"min":[-0.08857812279035299,0.03902609477617491,0.7116840503507355],"type":"VEC3"},{"bufferView":0,"byteOffset":12768,"componentType":5126,"count":88,"max":[0.7262996884698514,0.04202222149699324,0.1062964378272045],"min":[0.7137003731287552,0.017977778503006669,0.0937054661011278],"type":"VEC3"},{"bufferView":0,"byteOffset":13824,"componentType":5126,"count":43,"max":[0.7262996884698514,0.04202222149699324,0.1062964378272045],"min":[0.7137003731287552,0.042022221496993149,0.0937054661011278],"type":"VEC3"},{"bufferView":0,"byteOffset":14340,"componentType":5126,"count":43,"max":[0.7262996884698514,0.017977778503006755,0.1062964378272045],"min":[0.7137003731287552,0.017977778503006669,0.0937054661011278],"type":"VEC3"},{"bufferView":0,"byteOffset":14856,"componentType":5126,"count":90,"max":[-0.2668267791810695,0.2350084229198364,0.7331727505239116],"min":[-0.2931466166763624,-0.035008422919836409,0.7068287256536328],"type":"VEC3"},{"bufferView":0,"byteOffset":15936,"componentType":5126,"count":44,"max":[-0.2668267791810695,0.2350084229198364,0.7331727505239116],"min":[-0.2931466166763624,0.23500842291983629,0.7068287256536328],"type":"VEC3"},{"bufferView":0,"byteOffset":16464,"componentType":5126,"count":44,"max":[-0.2668267791810695,-0.035008422919836367,0.7331727505239116],"min":[-0.2931466166763624,-0.035008422919836409,0.7068287256536328],"type":"VEC3"},{"bufferView":0,"byteOffset":16992,"componentType":5126,"count":94,"max":[-0.2758528994484182,0.14240889508479963,0.7241369436848383],"min":[-0.2841288526655437,0.05759110491520031,0.7158641896568102],"type":"VEC3"},{"bufferView":0,"byteOffset":18120,"componentType":5126,"count":46,"max":[-0.2758528994484182,0.14240889508479963,0.7241369436848382],"min":[-0.2841288526655437,0.14240889508479943,0.7158641896568102],"type":"VEC3"},{"bufferView":0,"byteOffset":18672,"componentType":5126,"count":46,"max":[-0.2758528994484182,0.05759110491520053,0.7241369436848383],"min":[-0.2841288526655437,0.05759110491520031,0.7158641896568102],"type":"VEC3"},{"bufferView":0,"byteOffset":19224,"componentType":5126,"count":4,"max":[0.4930277138173988,0.0,-0.484084234989846],"min":[-0.09302771381739865,0.0,-0.515915765010154],"type":"VEC3"},{"bufferView":0,"byteOffset":19272,"componentType":5126,"count":4,"max":[1.4000000000000002,0.0,-0.484084234989846],"min":[-1.0,0.0,-0.515915765010154],"type":"VEC3"},{"bufferView":0,"byteOffset":19320,"componentType":5126,"count":4,"max":[1.4000000000000002,0.0,-0.484084234989846],"min":[-1.0,0.0,-0.515915765010154],"type":"VEC3"},{"bufferView":0,"byteOffset":19368,"componentType":5126,"count":4,"max":[0.4930277138173988,0.0,-0.484084234989846],"min":[-0.09302771381739865,0.0,-0.515915765010154],"type":"VEC3"},{"bufferView":0,"byteOffset":19416,"componentType":5126,"count":4,"max":[0.4930277138173988,0.0,-0.484084234989846],"min":[-0.09302771381739865,0.0,-0.515915765010154],"type":"VEC3"},{"bufferView":0,"byteOffset":19464,"componentType":5126,"count":4,"max":[1.4000000000000002,0.0,-0.2],"min":[-1.0,0.0,-0.6],"type":"VEC3"},{"bufferView":0,"byteOffset":19512,"componentType":5126,"count":4,"max":[1.4000000000000002,0.0,1.4000000000000002],"min":[-1.0,0.0,-1.0],"type":"VEC3"},{"bufferView":1,"byteOffset":0,"componentType":5126,"count":10,"type":"VEC3"},{"bufferView":1,"byteOffset":120,"componentType":5126,"count":42,"type":"VEC3"},{"bufferView":1,"byteOffset":624,"componentType":5126,"count":642,"type":"VEC3"},{"bufferView":1,"byteOffset":8328,"componentType":5126,"count":7,"type":"VEC3"},{"bufferView":1,"byteOffset":8412,"componentType":5126,"count":7,"type":"VEC3"},{"bufferView":1,"byteOffset":8496,"componentType":5126,"count":94,"type":"VEC3"},{"bufferView":1,"byteOffset":9624,"componentType":5126,"count":46,"type":"VEC3"},{"bufferView":1,"byteOffset":10176,"componentType":5126,"count":46,"type":"VEC3"},{"bufferView":1,"byteOffset":10728,"componentType":5126,"count":86,"type":"VEC3"},{"bufferView":1,"byteOffset":11760,"componentType":5126,"count":42,"type":"VEC3"},{"bufferView":1,"byteOffset":12264,"componentType":5126,"count":42,"type":"VEC3"},{"bufferView":1,"byteOffset":12768,"componentType":5126,"count":88,"type":"VEC3"},{"bufferView":1,"byteOffset":13824,"componentType":5126,"count":43,"type":"VEC3"},{"bufferView":1,"byteOffset":14340,"componentType":5126,"count":43,"type":"VEC3"},{"bufferView":1,"byteOffset":14856,"componentType":5126,"count":90,"type":"VEC3"},{"bufferView":1,"byteOffset":15936,"componentType":5126,"count":44,"type":"VEC3"},{"bufferView":1,"byteOffset":16464,"componentType":5126,"count":44,"type":"VEC3"},{"bufferView":1,"byteOffset":16992,"componentType":5126,"count":94,"type":"VEC3"},{"bufferView":1,"byteOffset":18120,"componentType":5126,"count":46,"type":"VEC3"},{"bufferView":1,"byteOffset":18672,"componentType":5126,"count":46,"type":"VEC3"},{"bufferView":1,"byteOffset":19224,"componentType":5126,"count":4,"type":"VEC3"},{"bufferView":1,"byteOffset":19272,"componentType":5126,"count":4,"type":"VEC3"},{"bufferView":1,"byteOffset":19320,"componentType":5126,"count":4,"type":"VEC3"},{"bufferView":1,"byteOffset":19368,"componentType":5126,"count":4,"type":"VEC3"},{"bufferView":1,"byteOffset":19416,"componentType":5126,"count":4,"type":"VEC3"},{"bufferView":1,"byteOffset":19464,"componentType":5126,"count":4,"type":"VEC3"},{"bufferView":1,"byteOffset":19512,"componentType":5126,"count":4,"type":"VEC3"},{"bufferView":2,"byteOffset":0,"componentType":5123,"count":24,"type":"SCALAR"},{"bufferView":2,"byteOffset":48,"componentType":5123,"count":120,"type":"SCALAR"},{"bufferView":2,"byteOffset":288,"componentType":5123,"count":3732,"type":"SCALAR"},{"bufferView":2,"byteOffset":7752,"componentType":5123,"count":15,"type":"SCALAR"},{"bufferView":2,"byteOffset":7784,"componentType":5123,"count":15,"type":"SCALAR"},{"bufferView":2,"byteOffset":7816,"componentType":5123,"count":276,"type":"SCALAR"},{"bufferView":2,"byteOffset":8368,"componentType":5123,"count":132,"type":"SCALAR"},{"bufferView":2,"byteOffset":8632,"componentType":5123,"count":132,"type":"SCALAR"},{"bufferView":2,"byteOffset":8896,"componentType":5123,"count":252,"type":"SCALAR"},{"bufferView":2,"byteOffset":9400,"componentType":5123,"count":120,"type":"SCALAR"},{"bufferView":2,"byteOffset":9640,"componentType":5123,"count":120,"type":"SCALAR"},{"bufferView":2,"byteOffset":9880,"componentType":5123,"count":258,"type":"SCALAR"},{"bufferView":2,"byteOffset":10396,"componentType":5123,"count":123,"type":"SCALAR"},{"bufferView":2,"byteOffset":10644,"componentType":5123,"count":123,"type":"SCALAR"},{"bufferView":2,"byteOffset":10892,"componentType":5123,"count":264,"type":"SCALAR"},{"bufferView":2,"byteOffset":11420,"componentType":5123,"count":126,"type":"SCALAR"},{"bufferView":2,"byteOffset":11672,"componentType":5123,"count":126,"type":"SCALAR"},{"bufferView":2,"byteOffset":11924,"componentType":5123,"count":276,"type":"SCALAR"},{"bufferView":2,"byteOffset":12476,"componentType":5123,"count":132,"type":"SCALAR"},{"bufferView":2,"byteOffset":12740,"componentType":5123,"count":132,"type":"SCALAR"},{"bufferView":2,"byteOffset":13004,"componentType":5123,"count":6,"type":"SCALAR"},{"bufferView":2,"byteOffset":13016,"componentType":5123,"count":6,"type":"SCALAR"},{"bufferView":2,"byteOffset":13028,"componentType":5123,"count":6,"type":"SCALAR"},{"bufferView":2,"byteOffset":13040,"componentType":5123,"count":6,"type":"SCALAR"},{"bufferView":2,"byteOffset":13052,"componentType":5123,"count":6,"type":"SCALAR"},{"bufferView":2,"byteOffset":13064,"componentType":5123,"count":6,"type":"SCALAR"},{"bufferView":2,"byteOffset":13076,"componentType":5123,"count":6,"type":"SCALAR"}],"asset":{"generator":"Open CASCADE Technology [www.opencascade.com]","version":"2.0","extras":{"author":"Mozongsoft Co. Ltd.","comment":"Wuweido"}},"bufferViews":[{"buffer":0,"byteLength":19560,"byteOffset":0,"byteStride":12,"target":34962},{"buffer":0,"byteLength":19560,"byteOffset":19560,"byteStride":12,"target":34962},{"buffer":0,"byteLength":13088,"byteOffset":39120,"target":34963}],"buffers":[{"byteLength":52208,"uri":"S1.bin"}],"materials":[{"name":"mat_0","pbrMetallicRoughness":{"baseColorFactor":[0.8549919724464417,0.8148459792137146,0.8148459792137146,1.0]},"doubleSided":true},{"name":"mat_1","pbrMetallicRoughness":{"baseColorFactor":[1.0,0.6795420050621033,0.0,1.0]},"doubleSided":true},{"name":"mat_2","pbrMetallicRoughness":{"baseColorFactor":[0.871366024017334,0.9386860132217407,1.0,1.0]},"doubleSided":true},{"name":"mat_3","pbrMetallicRoughness":{"baseColorFactor":[0.06124600023031235,0.22322799265384675,0.4564110040664673,1.0]},"doubleSided":true},{"name":"mat_4","pbrMetallicRoughness":{"baseColorFactor":[0.9386860132217407,0.9386860132217407,1.0,1.0]},"doubleSided":true},{"name":"mat_5","pbrMetallicRoughness":{"baseColorFactor":[0.31854701042175295,0.31854701042175295,0.31854701042175295,1.0]},"doubleSided":true},{"name":"mat_6","pbrMetallicRoughness":{"baseColorFactor":[0.13286800682544709,0.6104959845542908,0.0,1.0]},"doubleSided":true}],"meshes":[{"name":"COMPOUND","primitives":[{"attributes":{"NORMAL":27,"POSITION":0},"indices":54,"material":0,"mode":4}]},{"name":"COMPOUND","primitives":[{"attributes":{"NORMAL":28,"POSITION":1},"indices":55,"material":0,"mode":4}]},{"name":"SOLID","primitives":[{"attributes":{"NORMAL":29,"POSITION":2},"indices":56,"material":1,"mode":4}]},{"name":"COMPOUND","primitives":[{"attributes":{"NORMAL":30,"POSITION":3},"indices":57,"material":2,"mode":4}]},{"name":"COMPOUND","primitives":[{"attributes":{"NORMAL":31,"POSITION":4},"indices":58,"material":2,"mode":4}]},{"name":"SOLID","primitives":[{"attributes":{"NORMAL":32,"POSITION":5},"indices":59,"material":3,"mode":4},{"attributes":{"NORMAL":33,"POSITION":6},"indices":60,"material":3,"mode":4},{"attributes":{"NORMAL":34,"POSITION":7},"indices":61,"material":3,"mode":4}]},{"name":"SOLID","primitives":[{"attributes":{"NORMAL":35,"POSITION":8},"indices":62,"material":3,"mode":4},{"attributes":{"NORMAL":36,"POSITION":9},"indices":63,"material":3,"mode":4},{"attributes":{"NORMAL":37,"POSITION":10},"indices":64,"material":3,"mode":4}]},{"name":"SOLID","primitives":[{"attributes":{"NORMAL":38,"POSITION":11},"indices":65,"material":3,"mode":4},{"attributes":{"NORMAL":39,"POSITION":12},"indices":66,"material":3,"mode":4},{"attributes":{"NORMAL":40,"POSITION":13},"indices":67,"material":3,"mode":4}]},{"name":"SOLID","primitives":[{"attributes":{"NORMAL":41,"POSITION":14},"indices":68,"material":3,"mode":4},{"attributes":{"NORMAL":42,"POSITION":15},"indices":69,"material":3,"mode":4},{"attributes":{"NORMAL":43,"POSITION":16},"indices":70,"material":3,"mode":4}]},{"name":"SOLID","primitives":[{"attributes":{"NORMAL":44,"POSITION":17},"indices":71,"material":3,"mode":4},{"attributes":{"NORMAL":45,"POSITION":18},"indices":72,"material":3,"mode":4},{"attributes":{"NORMAL":46,"POSITION":19},"indices":73,"material":3,"mode":4}]},{"name":"FACE","primitives":[{"attributes":{"NORMAL":47,"POSITION":20},"indices":74,"material":4,"mode":4}]},{"name":"FACE","primitives":[{"attributes":{"NORMAL":48,"POSITION":21},"indices":75,"material":4,"mode":4}]},{"name":"FACE","primitives":[{"attributes":{"NORMAL":49,"POSITION":22},"indices":76,"material":4,"mode":4}]},{"name":"FACE","primitives":[{"attributes":{"NORMAL":50,"POSITION":23},"indices":77,"material":4,"mode":4}]},{"name":"FACE","primitives":[{"attributes":{"NORMAL":51,"POSITION":24},"indices":78,"material":4,"mode":4}]},{"name":"FACE","primitives":[{"attributes":{"NORMAL":52,"POSITION":25},"indices":79,"material":5,"mode":4}]},{"name":"FACE","primitives":[{"attributes":{"NORMAL":53,"POSITION":26},"indices":80,"material":6,"mode":4}]}],"nodes":[{"mesh":0,"name":"Object27"},{"translation":[-1.000540584935914,0.0,0.0],"mesh":1,"name":"Object28"},{"rotation":[-0.5,0.5,0.5,0.5000000000000001],"translation":[0.12873415511268217,0.042406831789294687,1.0785632433972679],"mesh":2,"name":"Object29"},{"translation":[-1.1195604987390684,0.0,0.0],"mesh":3,"name":"Object30"},{"translation":[-1.000540584935914,0.0,0.0],"mesh":4,"name":"Object48"},{"rotation":[-0.26693358189581148,0.0,0.0,0.9637149282107609],"translation":[0.28051392780119446,-0.24752825631282319,-0.02230241587741694],"mesh":5,"name":"Object51"},{"translation":[0.04964184926436687,0.10962760421393779,-0.13640616139091289],"mesh":6,"name":"Object52"},{"rotation":[-0.5,0.5,0.5,0.5000000000000001],"translation":[0.029434451098989485,0.055519877510531837,1.2956459984880585],"mesh":7,"name":"Object53"},{"translation":[0.28051392780119446,0.1260306988033865,-0.10665599717458099],"mesh":8,"name":"Object54"},{"rotation":[-0.26693358189581148,0.0,0.0,0.9637149282107609],"translation":[0.28051392780119446,-0.26512240126545269,-0.011721057001445509],"mesh":9,"name":"Object55"},{"rotation":[-0.7071067811865475,0.0,0.0,0.7071067811865475],"translation":[0.0,0.3757218576790344,0.0],"name":"Object60"},{"translation":[0.0,0.36973899750014035,0.0],"name":"Object61"},{"translation":[0.0,0.36983153199024046,0.0],"name":"Object62"},{"translation":[-0.692028973961299,0.09559086807762879,0.1046614777969985],"mesh":10,"name":"Object90"},{"translation":[0.0,0.09559086807762879,0.2552953527940665],"mesh":11,"name":"Object92"},{"translation":[0.0,0.09559086807762879,-0.05436938024895585],"mesh":12,"name":"Object93"},{"translation":[0.8864370755029036,0.09559086807762879,0.1046614777969985],"mesh":13,"name":"Object94"},{"translation":[0.10516299017210054,0.09559086807762879,0.1046614777969985],"mesh":14,"name":"Object95"},{"translation":[0.0,0.09207728740696666,0.0],"mesh":15,"name":"Object96"},{"translation":[0.0,0.08607224692390343,0.0],"mesh":16,"name":"Object97"}],"scene":0,"scenes":[{"nodes":[0,1,2,3,4,5,6,7,8,9,10,11,12,13,14,15,16,17,18,19]}]}