{"accessors":[{"bufferView":0,"byteOffset":0,"componentType":5126,"count":10,"max":[0.1726858257292286,0.3729652999058306,0.3148761679620326],"min":[-0.17334141646336327,0.128565646060828,0.297626918387907],"type":"VEC3"},{"bufferView":0,"byteOffset":120,"componentType":5126,"count":43,"max":[1.1732264106651427,0.3468645955751987,0.6884349187401193],"min":[0.8271991684725506,0.1304736956837691,0.2979467291974119],"type":"VEC3"},{"bufferView":0,"byteOffset":636,"componentType":5126,"count":642,"max":[0.48387040743045919,0.1471000905763191,0.3443507067871297],"min":[0.4470345920585211,0.11040444660290805,0.3075849771144552],"type":"VEC3"},{"bufferView":0,"byteOffset":8340,"componentType":5126,"count":7,"max":[0.946791922320141,0.3679610024579218,0.7168465685206402],"min":[0.9465537180081699,0.1334293753521693,0.31626452384619738],"type":"VEC3"},{"bufferView":0,"byteOffset":8424,"componentType":5126,"count":7,"max":[1.170973113011199,0.3679610024579218,0.7168465685206402],"min":[1.1707349086992276,0.1334293753521693,0.31626452384619738],"type":"VEC3"},{"bufferView":0,"byteOffset":8508,"componentType":5126,"count":92,"max":[-0.27695868520499597,0.13107602480227258,0.7230268647395536],"min":[-0.28302216564112089,0.06892397519772735,0.7169701507335673],"type":"VEC3"},{"bufferView":0,"byteOffset":9612,"componentType":5126,"count":45,"max":[-0.27695868520499597,0.13107602480227258,0.7230268647395536],"min":[-0.28302216564112089,0.1310760248022724,0.7169701507335673],"type":"VEC3"},{"bufferView":0,"byteOffset":10152,"componentType":5126,"count":45,"max":[-0.27695868520499597,0.06892397519772754,0.7230268647395536],"min":[-0.28302216564112089,0.06892397519772735,0.7169701507335673],"type":"VEC3"},{"bufferView":0,"byteOffset":10692,"componentType":5126,"count":86,"max":[-0.01129968851767498,0.060973905223825088,0.7883049761238977],"min":[-0.08857812279035299,0.03902609477617491,0.7116840503507355],"type":"VEC3"},{"bufferView":0,"byteOffset":11724,"componentType":5126,"count":42,"max":[-0.01129968851767498,0.060973905223825088,0.7883049761238977],"min":[-0.08857812279035299,0.06097390522382506,0.7116840503507355],"type":"VEC3"},{"bufferView":0,"byteOffset":12228,"componentType":5126,"count":42,"max":[-0.01129968851767498,0.03902609477617494,0.7883049761238977],"min":[-0.08857812279035299,0.03902609477617491,0.7116840503507355],"type":"VEC3"},{"bufferView":0,"byteOffset":12732,"componentType":5126,"count":88,"max":[0.7262996884698514,0.04202222149699324,0.1062964378272045],"min":[0.7137003731287552,0.017977778503006669,0.0937054661011278],"type":"VEC3"},{"bufferView":0,"byteOffset":13788,"componentType":5126,"count":43,"max":[0.7262996884698514,0.04202222149699324,0.1062964378272045],"min":[0.7137003731287552,0.042022221496993149,0.0937054661011278],"type":"VEC3"},{"bufferView":0,"byteOffset":14304,"componentType":5126,"count":43,"max":[0.7262996884698514,0.017977778503006755,0.1062964378272045],"min":[0.7137003731287552,0.017977778503006669,0.0937054661011278],"type":"VEC3"},{"bufferView":0,"byteOffset":14820,"componentType":5126,"count":90,"max":[-0.2668267791810695,0.2350084229198364,0.7331727505239116],"min":[-0.2931466166763624,-0.035008422919836409,0.7068287256536328],"type":"VEC3"},{"bufferView":0,"byteOffset":15900,"componentType":5126,"count":44,"max":[-0.2668267791810695,0.2350084229198364,0.7331727505239116],"min":[-0.2931466166763624,0.23500842291983629,0.7068287256536328],"type":"VEC3"},{"bufferView":0,"byteOffset":16428,"componentType":5126,"count":44,"max":[-0.2668267791810695,-0.035008422919836367,0.7331727505239116],"min":[-0.2931466166763624,-0.035008422919836409,0.7068287256536328],"type":"VEC3"},{"bufferView":0,"byteOffset":16956,"componentType":5126,"count":92,"max":[-0.2758528994484182,0.14240889508479966,0.7241305015029671],"min":[-0.28412762272159439,0.057591104915200367,0.7158650122567349],"type":"VEC3"},{"bufferView":0,"byteOffset":18060,"componentType":5126,"count":45,"max":[-0.2758528994484182,0.14240889508479966,0.7241305015029671],"min":[-0.28412762272159439,0.14240889508479943,0.7158650122567349],"type":"VEC3"},{"bufferView":0,"byteOffset":18600,"componentType":5126,"count":45,"max":[-0.2758528994484182,0.0575911049152005,0.724130501502967],"min":[-0.28412762272159439,0.057591104915200367,0.7158650122567349],"type":"VEC3"},{"bufferView":0,"byteOffset":19140,"componentType":5126,"count":4,"max":[0.4930277138173988,0.0,-0.484084234989846],"min":[-0.09302771381739865,0.0,-0.515915765010154],"type":"VEC3"},{"bufferView":0,"byteOffset":19188,"componentType":5126,"count":4,"max":[1.4000000000000002,0.0,-0.484084234989846],"min":[-1.0,0.0,-0.515915765010154],"type":"VEC3"},{"bufferView":0,"byteOffset":19236,"componentType":5126,"count":4,"max":[1.4000000000000002,0.0,-0.484084234989846],"min":[-1.0,0.0,-0.515915765010154],"type":"VEC3"},{"bufferView":0,"byteOffset":19284,"componentType":5126,"count":4,"max":[0.4930277138173988,0.0,-0.484084234989846],"min":[-0.09302771381739865,0.0,-0.515915765010154],"type":"VEC3"},{"bufferView":0,"byteOffset":19332,"componentType":5126,"count":4,"max":[0.4930277138173988,0.0,-0.484084234989846],"min":[-0.09302771381739865,0.0,-0.515915765010154],"type":"VEC3"},{"bufferView":0,"byteOffset":19380,"componentType":5126,"count":4,"max":[1.4000000000000002,0.0,-0.2],"min":[-1.0,0.0,-0.6],"type":"VEC3"},{"bufferView":0,"byteOffset":19428,"componentType":5126,"count":4,"max":[1.4000000000000002,0.0,1.4000000000000002],"min":[-1.0,0.0,-1.0],"type":"VEC3"},{"bufferView":0,"byteOffset":19476,"componentType":5126,"count":92,"max":[-0.27695868520499597,0.13107602480227255,0.7230268647395536],"min":[-0.28302216564112089,0.06892397519772735,0.7169701507335673],"type":"VEC3"},{"bufferView":0,"byteOffset":20580,"componentType":5126,"count":45,"max":[-0.27695868520499597,0.13107602480227255,0.7230268647395536],"min":[-0.28302216564112089,0.13107602480227246,0.7169701507335673],"type":"VEC3"},{"bufferView":0,"byteOffset":21120,"componentType":5126,"count":45,"max":[-0.27695868520499597,0.06892397519772749,0.7230268647395536],"min":[-0.28302216564112089,0.06892397519772735,0.7169701507335674],"type":"VEC3"},{"bufferView":0,"byteOffset":21660,"componentType":5126,"count":92,"max":[-0.27695868520499597,0.1310760248022725,0.7230268647395538],"min":[-0.28302216564112089,0.06892397519772738,0.7169701507335672],"type":"VEC3"},{"bufferView":0,"byteOffset":22764,"componentType":5126,"count":45,"max":[-0.27695868520499597,0.1310760248022725,0.7230268647395538],"min":[-0.28302216564112089,0.1310760248022724,0.7169701507335673],"type":"VEC3"},{"bufferView":0,"byteOffset":23304,"componentType":5126,"count":45,"max":[-0.27695868520499597,0.06892397519772749,0.7230268647395536],"min":[-0.28302216564112089,0.06892397519772738,0.7169701507335672],"type":"VEC3"},{"bufferView":0,"byteOffset":23844,"componentType":5126,"count":92,"max":[-0.27695868520499597,0.13107602480227258,0.7230268647395536],"min":[-0.28302216564112089,0.06892397519772735,0.7169701507335673],"type":"VEC3"},{"bufferView":0,"byteOffset":24948,"componentType":5126,"count":45,"max":[-0.27695868520499597,0.13107602480227258,0.7230268647395536],"min":[-0.28302216564112089,0.13107602480227238,0.7169701507335673],"type":"VEC3"},{"bufferView":0,"byteOffset":25488,"componentType":5126,"count":45,"max":[-0.27695868520499597,0.06892397519772752,0.7230268647395536],"min":[-0.28302216564112089,0.06892397519772735,0.7169701507335673],"type":"VEC3"},{"bufferView":1,"byteOffset":0,"componentType":5126,"count":10,"type":"VEC3"},{"bufferView":1,"byteOffset":120,"componentType":5126,"count":43,"type":"VEC3"},{"bufferView":1,"byteOffset":636,"componentType":5126,"count":642,"type":"VEC3"},{"bufferView":1,"byteOffset":8340,"componentType":5126,"count":7,"type":"VEC3"},{"bufferView":1,"byteOffset":8424,"componentType":5126,"count":7,"type":"VEC3"},{"bufferView":1,"byteOffset":8508,"componentType":5126,"count":92,"type":"VEC3"},{"bufferView":1,"byteOffset":9612,"componentType":5126,"count":45,"type":"VEC3"},{"bufferView":1,"byteOffset":10152,"componentType":5126,"count":45,"type":"VEC3"},{"bufferView":1,"byteOffset":10692,"componentType":5126,"count":86,"type":"VEC3"},{"bufferView":1,"byteOffset":11724,"componentType":5126,"count":42,"type":"VEC3"},{"bufferView":1,"byteOffset":12228,"componentType":5126,"count":42,"type":"VEC3"},{"bufferView":1,"byteOffset":12732,"componentType":5126,"count":88,"type":"VEC3"},{"bufferView":1,"byteOffset":13788,"componentType":5126,"count":43,"type":"VEC3"},{"bufferView":1,"byteOffset":14304,"componentType":5126,"count":43,"type":"VEC3"},{"bufferView":1,"byteOffset":14820,"componentType":5126,"count":90,"type":"VEC3"},{"bufferView":1,"byteOffset":15900,"componentType":5126,"count":44,"type":"VEC3"},{"bufferView":1,"byteOffset":16428,"componentType":5126,"count":44,"type":"VEC3"},{"bufferView":1,"byteOffset":16956,"componentType":5126,"count":92,"type":"VEC3"},{"bufferView":1,"byteOffset":18060,"componentType":5126,"count":45,"type":"VEC3"},{"bufferView":1,"byteOffset":18600,"componentType":5126,"count":45,"type":"VEC3"},{"bufferView":1,"byteOffset":19140,"componentType":5126,"count":4,"type":"VEC3"},{"bufferView":1,"byteOffset":19188,"componentType":5126,"count":4,"type":"VEC3"},{"bufferView":1,"byteOffset":19236,"componentType":5126,"count":4,"type":"VEC3"},{"bufferView":1,"byteOffset":19284,"componentType":5126,"count":4,"type":"VEC3"},{"bufferView":1,"byteOffset":19332,"componentType":5126,"count":4,"type":"VEC3"},{"bufferView":1,"byteOffset":19380,"componentType":5126,"count":4,"type":"VEC3"},{"bufferView":1,"byteOffset":19428,"componentType":5126,"count":4,"type":"VEC3"},{"bufferView":1,"byteOffset":19476,"componentType":5126,"count":92,"type":"VEC3"},{"bufferView":1,"byteOffset":20580,"componentType":5126,"count":45,"type":"VEC3"},{"bufferView":1,"byteOffset":21120,"componentType":5126,"count":45,"type":"VEC3"},{"bufferView":1,"byteOffset":21660,"componentType":5126,"count":92,"type":"VEC3"},{"bufferView":1,"byteOffset":22764,"componentType":5126,"count":45,"type":"VEC3"},{"bufferView":1,"byteOffset":23304,"componentType":5126,"count":45,"type":"VEC3"},{"bufferView":1,"byteOffset":23844,"componentType":5126,"count":92,"type":"VEC3"},{"bufferView":1,"byteOffset":24948,"componentType":5126,"count":45,"type":"VEC3"},{"bufferView":1,"byteOffset":25488,"componentType":5126,"count":45,"type":"VEC3"},{"bufferView":2,"byteOffset":0,"componentType":5123,"count":24,"type":"SCALAR"},{"bufferView":2,"byteOffset":48,"componentType":5123,"count":123,"type":"SCALAR"},{"bufferView":2,"byteOffset":296,"componentType":5123,"count":3732,"type":"SCALAR"},{"bufferView":2,"byteOffset":7760,"componentType":5123,"count":15,"type":"SCALAR"},{"bufferView":2,"byteOffset":7792,"componentType":5123,"count":15,"type":"SCALAR"},{"bufferView":2,"byteOffset":7824,"componentType":5123,"count":270,"type":"SCALAR"},{"bufferView":2,"byteOffset":8364,"componentType":5123,"count":129,"type":"SCALAR"},{"bufferView":2,"byteOffset":8624,"componentType":5123,"count":129,"type":"SCALAR"},{"bufferView":2,"byteOffset":8884,"componentType":5123,"count":252,"type":"SCALAR"},{"bufferView":2,"byteOffset":9388,"componentType":5123,"count":120,"type":"SCALAR"},{"bufferView":2,"byteOffset":9628,"componentType":5123,"count":120,"type":"SCALAR"},{"bufferView":2,"byteOffset":9868,"componentType":5123,"count":258,"type":"SCALAR"},{"bufferView":2,"byteOffset":10384,"componentType":5123,"count":123,"type":"SCALAR"},{"bufferView":2,"byteOffset":10632,"componentType":5123,"count":123,"type":"SCALAR"},{"bufferView":2,"byteOffset":10880,"componentType":5123,"count":264,"type":"SCALAR"},{"bufferView":2,"byteOffset":11408,"componentType":5123,"count":126,"type":"SCALAR"},{"bufferView":2,"byteOffset":11660,"componentType":5123,"count":126,"type":"SCALAR"},{"bufferView":2,"byteOffset":11912,"componentType":5123,"count":270,"type":"SCALAR"},{"bufferView":2,"byteOffset":12452,"componentType":5123,"count":129,"type":"SCALAR"},{"bufferView":2,"byteOffset":12712,"componentType":5123,"count":129,"type":"SCALAR"},{"bufferView":2,"byteOffset":12972,"componentType":5123,"count":6,"type":"SCALAR"},{"bufferView":2,"byteOffset":12984,"componentType":5123,"count":6,"type":"SCALAR"},{"bufferView":2,"byteOffset":12996,"componentType":5123,"count":6,"type":"SCALAR"},{"bufferView":2,"byteOffset":13008,"componentType":5123,"count":6,"type":"SCALAR"},{"bufferView":2,"byteOffset":13020,"componentType":5123,"count":6,"type":"SCALAR"},{"bufferView":2,"byteOffset":13032,"componentType":5123,"count":6,"type":"SCALAR"},{"bufferView":2,"byteOffset":13044,"componentType":5123,"count":6,"type":"SCALAR"},{"bufferView":2,"byteOffset":13056,"componentType":5123,"count":270,"type":"SCALAR"},{"bufferView":2,"byteOffset":13596,"componentType":5123,"count":129,"type":"SCALAR"},{"bufferView":2,"byteOffset":13856,"componentType":5123,"count":129,"type":"SCALAR"},{"bufferView":2,"byteOffset":14116,"componentType":5123,"count":270,"type":"SCALAR"},{"bufferView":2,"byteOffset":14656,"componentType":5123,"count":129,"type":"SCALAR"},{"bufferView":2,"byteOffset":14916,"componentType":5123,"count":129,"type":"SCALAR"},{"bufferView":2,"byteOffset":15176,"componentType":5123,"count":270,"type":"SCALAR"},{"bufferView":2,"byteOffset":15716,"componentType":5123,"count":129,"type":"SCALAR"},{"bufferView":2,"byteOffset":15976,"componentType":5123,"count":129,"type":"SCALAR"}],"asset":{"generator":"Open CASCADE Technology [www.opencascade.com]","version":"2.0","extras":{"author":"Mozongsoft Co. Ltd.","comment":"Wuweido"}},"bufferViews":[{"buffer":0,"byteLength":26028,"byteOffset":0,"byteStride":12,"target":34962},{"buffer":0,"byteLength":26028,"byteOffset":26028,"byteStride":12,"target":34962},{"buffer":0,"byteLength":16236,"byteOffset":52056,"target":34963}],"buffers":[{"byteLength":68292,"uri":"S2.bin"}],"materials":[{"name":"mat_0","pbrMetallicRoughness":{"baseColorFactor":[0.8549919724464417,0.8148459792137146,0.8148459792137146,1.0]},"doubleSided":true},{"name":"mat_1","pbrMetallicRoughness":{"baseColorFactor":[1.0,0.6795420050621033,0.0,1.0]},"doubleSided":true},{"name":"mat_2","pbrMetallicRoughness":{"baseColorFactor":[0.871366024017334,0.9386860132217407,1.0,1.0]},"doubleSided":true},{"name":"mat_3","pbrMetallicRoughness":{"baseColorFactor":[0.06124600023031235,0.22322799265384675,0.4564110040664673,1.0]},"doubleSided":true},{"name":"mat_4","pbrMetallicRoughness":{"baseColorFactor":[0.9386860132217407,0.9386860132217407,1.0,1.0]},"doubleSided":true},{"name":"mat_5","pbrMetallicRoughness":{"baseColorFactor":[0.31854701042175295,0.31854701042175295,0.31854701042175295,1.0]},"doubleSided":true},{"name":"mat_6","pbrMetallicRoughness":{"baseColorFactor":[0.13286800682544709,0.6104959845542908,0.0,1.0]},"doubleSided":true}],"meshes":[{"name":"COMPOUND","primitives":[{"attributes":{"NORMAL":36,"POSITION":0},"indices":72,"material":0,"mode":4}]},{"name":"COMPOUND","primitives":[{"attributes":{"NORMAL":37,"POSITION":1},"indices":73,"material":0,"mode":4}]},{"name":"SOLID","primitives":[{"attributes":{"NORMAL":38,"POSITION":2},"indices":74,"material":1,"mode":4}]},{"name":"COMPOUND","primitives":[{"attributes":{"NORMAL":39,"POSITION":3},"indices":75,"material":2,"mode":4}]},{"name":"COMPOUND","primitives":[{"attributes":{"NORMAL":40,"POSITION":4},"indices":76,"material":2,"mode":4}]},{"name":"SOLID","primitives":[{"attributes":{"NORMAL":41,"POSITION":5},"indices":77,"material":3,"mode":4},{"attributes":{"NORMAL":42,"POSITION":6},"indices":78,"material":3,"mode":4},{"attributes":{"NORMAL":43,"POSITION":7},"indices":79,"material":3,"mode":4}]},{"name":"SOLID","primitives":[{"attributes":{"NORMAL":44,"POSITION":8},"indices":80,"material":3,"mode":4},{"attributes":{"NORMAL":45,"POSITION":9},"indices":81,"material":3,"mode":4},{"attributes":{"NORMAL":46,"POSITION":10},"indices":82,"material":3,"mode":4}]},{"name":"SOLID","primitives":[{"attributes":{"NORMAL":47,"POSITION":11},"indices":83,"material":3,"mode":4},{"attributes":{"NORMAL":48,"POSITION":12},"indices":84,"material":3,"mode":4},{"attributes":{"NORMAL":49,"POSITION":13},"indices":85,"material":3,"mode":4}]},{"name":"SOLID","primitives":[{"attributes":{"NORMAL":50,"POSITION":14},"indices":86,"material":3,"mode":4},{"attributes":{"NORMAL":51,"POSITION":15},"indices":87,"material":3,"mode":4},{"attributes":{"NORMAL":52,"POSITION":16},"indices":88,"material":3,"mode":4}]},{"name":"SOLID","primitives":[{"attributes":{"NORMAL":53,"POSITION":17},"indices":89,"material":3,"mode":4},{"attributes":{"NORMAL":54,"POSITION":18},"indices":90,"material":3,"mode":4},{"attributes":{"NORMAL":55,"POSITION":19},"indices":91,"material":3,"mode":4}]},{"name":"FACE","primitives":[{"attributes":{"NORMAL":56,"POSITION":20},"indices":92,"material":4,"mode":4}]},{"name":"FACE","primitives":[{"attributes":{"NORMAL":57,"POSITION":21},"indices":93,"material":4,"mode":4}]},{"name":"FACE","primitives":[{"attributes":{"NORMAL":58,"POSITION":22},"indices":94,"material":4,"mode":4}]},{"name":"FACE","primitives":[{"attributes":{"NORMAL":59,"POSITION":23},"indices":95,"material":4,"mode":4}]},{"name":"FACE","primitives":[{"attributes":{"NORMAL":60,"POSITION":24},"indices":96,"material":4,"mode":4}]},{"name":"FACE","primitives":[{"attributes":{"NORMAL":61,"POSITION":25},"indices":97,"material":5,"mode":4}]},{"name":"FACE","primitives":[{"attributes":{"NORMAL":62,"POSITION":26},"indices":98,"material":6,"mode":4}]},{"name":"SOLID","primitives":[{"attributes":{"NORMAL":63,"POSITION":27},"indices":99,"material":3,"mode":4},{"attributes":{"NORMAL":64,"POSITION":28},"indices":100,"material":3,"mode":4},{"attributes":{"NORMAL":65,"POSITION":29},"indices":101,"material":3,"mode":4}]},{"name":"SOLID","primitives":[{"attributes":{"NORMAL":66,"POSITION":30},"indices":102,"material":3,"mode":4},{"attributes":{"NORMAL":67,"POSITION":31},"indices":103,"material":3,"mode":4},{"attributes":{"NORMAL":68,"POSITION":32},"indices":104,"material":3,"mode":4}]},{"name":"SOLID","primitives":[{"attributes":{"NORMAL":69,"POSITION":33},"indices":105,"material":3,"mode":4},{"attributes":{"NORMAL":70,"POSITION":34},"indices":106,"material":3,"mode":4},{"attributes":{"NORMAL":71,"POSITION":35},"indices":107,"material":3,"mode":4}]}],"nodes":[{"rotation":[0.5257311121191337,0.0,0.0,0.8506508083520399],"translation":[0.0,0.7631824656911033,0.010541645712606908],"mesh":0,"name":"Object27"},{"rotation":[0.5257311121191337,0.0,0.0,0.8506508083520399],"translation":[-1.000540584935914,0.7631824656911033,0.010541645712606908],"mesh":1,"name":"Object28"},{"rotation":[-0.16245984811645312,0.16245984811645318,0.6881909602355868,0.6881909602355869],"translation":[0.12873415511268217,-0.18254891469822147,0.5308196152029],"mesh":2,"name":"Object29"},{"rotation":[0.5257311121191337,0.0,0.0,0.8506508083520399],"translation":[-1.1195604987390684,0.7631824656911033,0.010541645712606908],"mesh":3,"name":"Object30"},{"rotation":[0.5257311121191337,0.0,0.0,0.8506508083520399],"translation":[-1.000540584935914,0.7631824656911033,0.010541645712606908],"mesh":4,"name":"Object48"},{"rotation":[-0.2161308163854761,0.0,0.0,0.9763644146570213],"translation":[0.28051392780119446,-0.03836788390922466,-0.12940548381903919],"mesh":5,"name":"Object51"},{"translation":[0.04964184926436687,0.10962760421393779,-0.13640616139091289],"mesh":6,"name":"Object52"},{"rotation":[-0.5,0.5,0.5,0.5000000000000001],"translation":[0.029434451098989485,0.055519877510531837,1.2956459984880585],"mesh":7,"name":"Object53"},{"translation":[0.28051392780119446,0.1260306988033865,-0.10665599717458099],"mesh":8,"name":"Object54"},{"rotation":[-0.2161308163854761,0.0,0.0,0.9763644146570213],"translation":[0.28051392780119446,-0.19970379180289345,-0.055428856191646589],"mesh":9,"name":"Object55"},{"rotation":[-0.7071067811865475,0.0,0.0,0.7071067811865475],"translation":[0.0,0.3757218576790344,0.0],"name":"Object60"},{"translation":[0.0,0.36973899750014035,0.0],"name":"Object61"},{"translation":[0.0,0.36983153199024046,0.0],"name":"Object62"},{"translation":[-0.692028973961299,0.09559086807762879,0.1046614777969985],"mesh":10,"name":"Object90"},{"translation":[0.0,0.09559086807762879,0.2552953527940665],"mesh":11,"name":"Object92"},{"translation":[0.0,0.09559086807762879,-0.05436938024895585],"mesh":12,"name":"Object93"},{"translation":[0.8864370755029036,0.09559086807762879,0.1046614777969985],"mesh":13,"name":"Object94"},{"translation":[0.10516299017210054,0.09559086807762879,0.1046614777969985],"mesh":14,"name":"Object95"},{"translation":[0.0,0.09207728740696666,0.0],"mesh":15,"name":"Object96"},{"translation":[0.0,0.08607224692390343,0.0],"mesh":16,"name":"Object97"},{"rotation":[-0.2161308163854761,0.0,0.0,0.9763644146570213],"translation":[0.28051392780119446,-0.18109997623463149,-0.06411316034214289],"mesh":17,"name":"Object98"},{"rotation":[-0.2161308163854761,0.0,0.0,0.9763644146570213],"translation":[0.28051392780119446,-0.124854195787213,-0.08991971526416709],"mesh":18,"name":"Object99"},{"rotation":[-0.2161308163854761,0.0,0.0,0.9763644146570213],"translation":[0.28051392780119446,-0.06956639985974166,-0.11545358325497214],"mesh":19,"name":"Object100"}],"scene":0,"scenes":[{"nodes":[0,1,2,3,4,5,6,7,8,9,10,11,12,13,14,15,16,17,18,19,20,21,22]}]}